# xmcd CD database file
#
# Track frame offsets:
#	150
#	15275
#	32239
#	59309
#	78979
#	90463
#	122571
#	132712
#	154079
#	183310
#	204072
#	213963
#	242379
#	269032
#	302651
#	319457
#
# Disc length: 4482 seconds
#
# Revision: 0
# Processed by: cddbd v1.5.2PL0 Copyright (c) Steve Scherf et al.
# Submitted via: CDex 1.51
#
DISCID=d2118010
DTITLE=Tommy Flanagan - Complete Original Recordings
DYEAR=2007
DGENRE=Jazz
TTITLE0=Relaxin'
TTITLE1=Chelsea Bridge
TTITLE2=Eclypso
TTITLE3=Beat'S Up
TTITLE4=Sk-L Brothers
TTITLE5=Little Rock
TTITLE6=Vernvandi
TTITLE7=Darlana
TTITLE8=Willow Weep For Me
TTITLE9=Darlana (Take 2)
TTITLE10=Vervandi (Take 2)
TTITLE11=Willow For Me (Take 1)
TTITLE12=America
TTITLE13=Lonely Town
TTITLE14=Tonight
TTITLE15=It'S Love
EXTD=YEAR: 2007
EXTT0=
EXTT1=
EXTT2=
EXTT3=
EXTT4=
EXTT5=
EXTT6=
EXTT7=
EXTT8=
EXTT9=
EXTT10=
EXTT11=
EXTT12=
EXTT13=
EXTT14=
EXTT15=
PLAYORDER=
